<svg xmlns="http://www.w3.org/2000/svg" viewBox="0 0 380 148" font-family="system-ui,-apple-system,'Segoe UI',sans-serif">
  <defs>
    <pattern id="mtex" patternUnits="userSpaceOnUse" width="8" height="8" patternTransform="rotate(45)">
      <rect width="8" height="8" fill="#3fb950"/>
      <rect x="4" width="4" height="8" fill="#f1f5f9"/>
    </pattern>
  </defs>
  <rect x="1" y="1" width="378" height="146" rx="16" fill="#0d1117" stroke="#30363d" stroke-width="2"/>
  <text x="190" y="46" text-anchor="middle" font-size="38" font-weight="750" letter-spacing="-1.5"><tspan fill="#3fb950">verbati</tspan><tspan fill="url(#mtex)">m</tspan><tspan fill="#f1f5f9">eter</tspan></text>
  <g fill="#475569">
    <rect x="63" y="70" width="34" height="14" rx="4"/><rect x="107" y="70" width="34" height="14" rx="4"/><rect x="151" y="70" width="34" height="14" rx="4"/><rect x="195" y="70" width="34" height="14" rx="4"/><rect x="239" y="70" width="34" height="14" rx="4"/><rect x="283" y="70" width="34" height="14" rx="4"/>
  </g>
  <g stroke="#22c55e" stroke-width="2">
    <line x1="80" y1="84" x2="92" y2="104"/>
    <line x1="124" y1="84" x2="136" y2="104"/>
    <line x1="168" y1="84" x2="180" y2="104"/>
    <line x1="256" y1="84" x2="268" y2="104"/>
    <line x1="300" y1="84" x2="312" y2="104"/>
  </g>
  <g>
    <rect x="75" y="104" width="34" height="14" rx="4" fill="#22c55e"/><rect x="119" y="104" width="34" height="14" rx="4" fill="#22c55e"/><rect x="163" y="104" width="34" height="14" rx="4" fill="#22c55e"/><rect x="207" y="104" width="34" height="14" rx="4" fill="#ef4444"/><rect x="251" y="104" width="34" height="14" rx="4" fill="#22c55e"/><rect x="295" y="104" width="34" height="14" rx="4" fill="#22c55e"/>
  </g>
</svg>
